<mxfile host="app.diagrams.net" modified="2024-01-04T17:52:50.238Z" agent="Mozilla/5.0 (Macintosh; Intel Mac OS X 10_15_7) AppleWebKit/537.36 (KHTML, like Gecko) Chrome/119.0.0.0 Safari/537.36 Edg/119.0.0.0" etag="nOMePuuo-xOcDMy78mrl" version="22.1.16" type="device">
  <diagram name="Page-1" id="rv-AQdR3PSiCuxLCA7bk">
    <mxGraphModel dx="845" dy="542" grid="1" gridSize="10" guides="1" tooltips="1" connect="1" arrows="1" fold="1" page="1" pageScale="1" pageWidth="827" pageHeight="1169" math="0" shadow="0">
      <root>
        <mxCell id="0" />
        <mxCell id="1" parent="0" />
        <mxCell id="eOj7JT6H3w60WfDF_NTQ-6" value="" style="edgeStyle=orthogonalEdgeStyle;rounded=0;orthogonalLoop=1;jettySize=auto;html=1;" edge="1" parent="1" source="eOj7JT6H3w60WfDF_NTQ-1" target="eOj7JT6H3w60WfDF_NTQ-5">
          <mxGeometry relative="1" as="geometry">
            <Array as="points">
              <mxPoint x="200" y="240" />
              <mxPoint x="320" y="240" />
            </Array>
          </mxGeometry>
        </mxCell>
        <mxCell id="eOj7JT6H3w60WfDF_NTQ-1" value="&lt;font style=&quot;font-size: 14px;&quot;&gt;Gene expression and phenotype data&lt;br&gt;N = 1016&lt;/font&gt;" style="rounded=1;whiteSpace=wrap;html=1;" vertex="1" parent="1">
          <mxGeometry x="120" y="120" width="160" height="60" as="geometry" />
        </mxCell>
        <mxCell id="eOj7JT6H3w60WfDF_NTQ-2" value="&lt;font style=&quot;font-size: 14px;&quot;&gt;Clinical information&lt;br&gt;N = 1089&lt;/font&gt;" style="rounded=1;whiteSpace=wrap;html=1;" vertex="1" parent="1">
          <mxGeometry x="360" y="120" width="160" height="60" as="geometry" />
        </mxCell>
        <mxCell id="eOj7JT6H3w60WfDF_NTQ-14" value="" style="edgeStyle=orthogonalEdgeStyle;rounded=0;orthogonalLoop=1;jettySize=auto;html=1;" edge="1" parent="1" source="eOj7JT6H3w60WfDF_NTQ-5" target="eOj7JT6H3w60WfDF_NTQ-13">
          <mxGeometry relative="1" as="geometry" />
        </mxCell>
        <mxCell id="eOj7JT6H3w60WfDF_NTQ-5" value="&lt;font style=&quot;font-size: 14px;&quot;&gt;Matched by patient id&lt;br&gt;N = 1016&lt;/font&gt;" style="rounded=1;whiteSpace=wrap;html=1;" vertex="1" parent="1">
          <mxGeometry x="240" y="300" width="160" height="60" as="geometry" />
        </mxCell>
        <mxCell id="eOj7JT6H3w60WfDF_NTQ-7" value="" style="endArrow=none;html=1;rounded=0;entryX=0.5;entryY=1;entryDx=0;entryDy=0;" edge="1" parent="1" target="eOj7JT6H3w60WfDF_NTQ-2">
          <mxGeometry width="50" height="50" relative="1" as="geometry">
            <mxPoint x="200" y="240" as="sourcePoint" />
            <mxPoint x="420" y="200" as="targetPoint" />
            <Array as="points">
              <mxPoint x="440" y="240" />
            </Array>
          </mxGeometry>
        </mxCell>
        <mxCell id="eOj7JT6H3w60WfDF_NTQ-13" value="&lt;font style=&quot;font-size: 14px;&quot;&gt;Working dataset&lt;br&gt;N = 996&lt;/font&gt;" style="rounded=1;whiteSpace=wrap;html=1;" vertex="1" parent="1">
          <mxGeometry x="240" y="470" width="160" height="60" as="geometry" />
        </mxCell>
        <mxCell id="eOj7JT6H3w60WfDF_NTQ-15" value="" style="group" vertex="1" connectable="0" parent="1">
          <mxGeometry x="320" y="360" width="360" height="110" as="geometry" />
        </mxCell>
        <mxCell id="eOj7JT6H3w60WfDF_NTQ-16" value="" style="endArrow=classic;html=1;rounded=0;" edge="1" parent="eOj7JT6H3w60WfDF_NTQ-15">
          <mxGeometry width="50" height="50" relative="1" as="geometry">
            <mxPoint y="45" as="sourcePoint" />
            <mxPoint x="120" y="45" as="targetPoint" />
          </mxGeometry>
        </mxCell>
        <mxCell id="eOj7JT6H3w60WfDF_NTQ-17" value="&lt;div style=&quot;line-height: 160%; font-size: 14px;&quot;&gt;&lt;span style=&quot;background-color: initial;&quot;&gt;&lt;font style=&quot;font-size: 14px;&quot;&gt;Excluded:&lt;/font&gt;&lt;/span&gt;&lt;/div&gt;&lt;div style=&quot;line-height: 160%; font-size: 14px;&quot;&gt;&lt;font style=&quot;font-size: 14px;&quot;&gt;Missing overall survival time (N = 15)&lt;span style=&quot;background-color: initial;&quot;&gt;&lt;br&gt;&lt;/span&gt;&lt;/font&gt;&lt;/div&gt;&lt;div style=&quot;line-height: 160%; font-size: 14px;&quot;&gt;&lt;font style=&quot;font-size: 14px;&quot;&gt;Not eligible&lt;sup&gt;1&lt;/sup&gt; (N = 5)&lt;/font&gt;&lt;/div&gt;&lt;div style=&quot;font-size: 14px;&quot;&gt;&lt;br&gt;&lt;/div&gt;" style="rounded=1;whiteSpace=wrap;html=1;align=center;" vertex="1" parent="eOj7JT6H3w60WfDF_NTQ-15">
          <mxGeometry x="120" width="240" height="100" as="geometry" />
        </mxCell>
      </root>
    </mxGraphModel>
  </diagram>
</mxfile>
